<svg width="25" height="26" viewBox="0 0 25 26" fill="none" xmlns="http://www.w3.org/2000/svg">
<path d="M5.86688 1.41049L5.86709 1.41043C6.55234 1.22586 7.26076 1.5532 7.55894 2.16841L7.59084 2.2439L9.54388 6.86518L9.54397 6.86538C9.78811 7.44237 9.62109 8.10961 9.12431 8.51004C9.1243 8.51004 9.1243 8.51005 9.12429 8.51005L6.71719 10.45L6.40883 10.6985L6.58014 11.0556C8.25656 14.5498 11.1248 17.3769 14.6659 19.0283L15.0154 19.1912L15.2618 18.8947L17.2344 16.5215L17.2361 16.5194C17.6362 16.0326 18.324 15.8607 18.9203 16.1059L18.9205 16.106L23.6078 18.0315L23.6088 18.032C24.2855 18.3081 24.6389 19.0311 24.4487 19.7173L24.4486 19.7175L23.2772 23.9522C23.2771 23.9525 23.277 23.9528 23.277 23.9531C23.1034 24.5719 22.5308 25.007 21.874 25.007C10.0639 25.007 0.5 15.5677 0.5 3.9411C0.5 3.30634 0.933667 2.73923 1.57096 2.5656C1.57117 2.56555 1.57138 2.56549 1.57159 2.56543L5.86688 1.41049Z" fill="#FAFAFA" stroke="black"/>
</svg>
